<?xml version="1.0" encoding="UTF-8" standalone="no"?>
<!-- Created with Inkscape (http://www.inkscape.org/) -->

<svg
   version="1.1"
   id="svg2"
   xml:space="preserve"
   width="2666.6667"
   height="2666.6667"
   viewBox="0 0 2666.6667 2666.6667"
   sodipodiDocname="6.1-04.eps"
   xmlnsInkscape="http://www.inkscape.org/namespaces/inkscape"
   xmlnsSodipodi="http://sodipodi.sourceforge.net/DTD/sodipodi-0.dtd"
   xmlns="http://www.w3.org/2000/svg"
   xmlnsSvg="http://www.w3.org/2000/svg"><defs
     id="defs6" /><sodipodi:namedview
     id="namedview4"
     pagecolor="#ffffff"
     bordercolor="#666666"
     borderopacity="1.0"
     inkscapePageshadow="2"
     inkscapePageopacity="0.0"
     inkscapePagecheckerboard="0" /><g
     id="g8"
     inkscapeGroupmode="layer"
     inkscapeLabel="ink_ext_XXXXXX"
     transform="matrix(1.3333333,0,0,-1.3333333,0,2666.6667)"><g
       id="g10"
       transform="scale(0.1)"><path
         d="m 8288.84,10795.6 c 32.91,-96.3 32.11,-200.9 1.53,-297.9 -41.3,-131.1 -95.56,-233 -146.82,-309 183.91,-87.8 386.09,-128.1 604.57,-92.6 141.53,22.9 299.07,80.1 436.56,172 -147.07,88 -261.03,215.4 -348.07,348.6 -38.89,59.5 -67.37,125.4 -80.45,195.3 -17.05,91.1 -13.98,207.7 82.77,278.3 l -425.24,458.7 -293.86,-573.4 c 0,0 110.84,-9.8 169.01,-180"
         style="fill:#211d1d;fill-opacity:1;fill-rule:nonzero;stroke:none"
         id="path12" /><path
         d="m 11711.2,10795.6 c -32.9,-96.3 -32.1,-200.9 -1.6,-297.9 41.3,-131.1 95.6,-233 146.9,-309 -184,-87.8 -386.1,-128.1 -604.6,-92.6 -141.5,22.9 -299.1,80.1 -436.6,172 147.1,88 261.1,215.4 348.1,348.6 38.9,59.5 67.4,125.4 80.4,195.3 17.1,91.1 14,207.7 -82.7,278.3 l 425.2,458.7 293.9,-573.4 c 0,0 -110.9,-9.8 -169,-180"
         style="fill:#211d1d;fill-opacity:1;fill-rule:nonzero;stroke:none"
         id="path14" /><path
         d="m 13050.7,11539.6 c 0,0 -690.9,-1793.5 -1806,-1612.5 -425.3,69 -995.3,446.6 -730.5,1147.7 30.5,80.6 64,110.1 64,110.1 l -578.2,1053.5 -578.21,-1053.5 c 0,0 33.51,-29.5 63.97,-110.1 264.84,-701.1 -305.2,-1078.7 -730.48,-1147.7 -1115.05,-181 -1806.02,1612.5 -1806.02,1612.5 0,0 -57.56,-562.5 119.3,-1292.7 0,0 665.99,-444 758,-1691.7 470.64,227.2 1268.44,376.6 2173.44,376.6 921.3,0 1731.4,-154.8 2198.5,-388.9 89.4,1374.9 732.9,1704 732.9,1704 176.9,730.2 119.3,1292.7 119.3,1292.7"
         style="fill:#211d1d;fill-opacity:1;fill-rule:nonzero;stroke:none"
         id="path16" /><path
         d="m 10000,8741.3 c -1226.02,0 -2219.9,-264.6 -2219.9,-590.9 0,-148.9 206.97,-284.9 548.39,-388.8 -140.93,70.5 -220.9,150.9 -220.9,236.3 0,278.2 847.26,503.7 1892.41,503.7 1045.2,0 1892.4,-225.5 1892.4,-503.7 0,-85.4 -80,-165.8 -220.9,-236.3 341.4,103.9 548.4,239.9 548.4,388.8 0,326.3 -993.9,590.9 -2219.9,590.9"
         style="fill:#211d1d;fill-opacity:1;fill-rule:nonzero;stroke:none"
         id="path18" /></g></g></svg>
